<svg width="34" height="42" viewBox="0 0 34 42" fill="none" xmlns="http://www.w3.org/2000/svg">
<path d="M9.45 40.55C9.18334 40.2833 9.03333 39.95 9 39.55C8.96667 39.15 9.06667 38.8 9.3 38.5L19 25L2.8 23.45C1.93333 23.3833 1.358 22.9333 1.074 22.1C0.791335 21.2667 0.983334 20.5667 1.65 20L22.4 1.39999C22.7 1.09999 23.0587 0.957994 23.476 0.973994C23.892 0.991327 24.25 1.14999 24.55 1.44999C24.8167 1.71666 24.9667 2.04999 25 2.44999C25.0333 2.84999 24.9333 3.19999 24.7 3.49999L15 17L31.2 18.55C32.0667 18.6167 32.6413 19.0667 32.924 19.9C33.208 20.7333 33.0167 21.4333 32.35 22L11.6 40.6C11.3 40.9 10.942 41.0413 10.526 41.024C10.1087 41.008 9.75 40.85 9.45 40.55Z" fill="white"/>
</svg>
