<svg width="48" height="48" viewBox="0 0 48 48" fill="none" xmlns="http://www.w3.org/2000/svg">
<path d="M9 42C8.16667 42 7.45867 41.708 6.876 41.124C6.292 40.5413 6 39.8333 6 39V35.2L14 28.1V42H9ZM16 42V34H32V42H16ZM34 42V25.6L25.45 18L31.5 12.65L41 21.1C41.3333 21.4 41.5833 21.7413 41.75 22.124C41.9167 22.508 42 22.9167 42 23.35V39C42 39.8333 41.708 40.5413 41.124 41.124C40.5413 41.708 39.8333 42 39 42H34ZM6 32.5V23.35C6 22.9167 6.08333 22.5 6.25 22.1C6.41667 21.7 6.66667 21.3667 7 21.1L22 7.79999C22.2667 7.53332 22.5753 7.34132 22.926 7.22399C23.2753 7.10799 23.6333 7.04999 24 7.04999C24.3667 7.04999 24.7253 7.10799 25.076 7.22399C25.4253 7.34132 25.7333 7.53332 26 7.79999L30 11.35L6 32.5Z" fill="white"/>
</svg>
