<svg width="48" height="48" viewBox="0 0 48 48" fill="none" xmlns="http://www.w3.org/2000/svg">
<path d="M26 16C26 18.1217 25.1571 20.1566 23.6569 21.6569C22.1566 23.1571 20.1217 24 18 24C15.8783 24 13.8434 23.1571 12.3431 21.6569C10.8429 20.1566 10 18.1217 10 16C10 13.8783 10.8429 11.8434 12.3431 10.3431C13.8434 8.84285 15.8783 8 18 8C20.1217 8 22.1566 8.84285 23.6569 10.3431C25.1571 11.8434 26 13.8783 26 16ZM34 36V40H2V36C2 31.58 9.16 28 18 28C26.84 28 34 31.58 34 36ZM41 29V32H38V29H41ZM37 19H34V18C34 16.4087 34.6321 14.8826 35.7574 13.7574C36.8826 12.6321 38.4087 12 40 12C41.5913 12 43.1174 12.6321 44.2426 13.7574C45.3679 14.8826 46 16.4087 46 18C46 19.94 45 21.76 43.42 22.82L42.82 23.2C41.68 24 41 25.22 41 26.6V27H38V26.6C38 24.22 39.2 22 41.18 20.7L41.76 20.32C42.54 19.8 43 18.94 43 18C43 17.2044 42.6839 16.4413 42.1213 15.8787C41.5587 15.3161 40.7957 15 40 15C39.2043 15 38.4413 15.3161 37.8787 15.8787C37.3161 16.4413 37 17.2044 37 18V19Z" fill="white"/>
</svg>
